<mxfile host="65bd71144e">
    <diagram id="A4K7_tlle9rM2sfjXIkH" name="第 1 页">
        <mxGraphModel dx="1127" dy="671" grid="1" gridSize="10" guides="1" tooltips="1" connect="1" arrows="1" fold="1" page="1" pageScale="1" pageWidth="827" pageHeight="1169" math="0" shadow="0">
            <root>
                <mxCell id="0"/>
                <mxCell id="1" parent="0"/>
                <mxCell id="2" value="MSControler" style="swimlane;fontStyle=1;align=center;verticalAlign=top;childLayout=stackLayout;horizontal=1;startSize=26;horizontalStack=0;resizeParent=1;resizeParentMax=0;resizeLast=0;collapsible=1;marginBottom=0;" parent="1" vertex="1" collapsed="1">
                    <mxGeometry x="170" y="390" width="110" height="30" as="geometry">
                        <mxRectangle x="110" y="130" width="160" height="86" as="alternateBounds"/>
                    </mxGeometry>
                </mxCell>
                <mxCell id="3" value="+ field: type" style="text;strokeColor=none;fillColor=none;align=left;verticalAlign=top;spacingLeft=4;spacingRight=4;overflow=hidden;rotatable=0;points=[[0,0.5],[1,0.5]];portConstraint=eastwest;" parent="2" vertex="1">
                    <mxGeometry y="26" width="160" height="26" as="geometry"/>
                </mxCell>
                <mxCell id="4" value="" style="line;strokeWidth=1;fillColor=none;align=left;verticalAlign=middle;spacingTop=-1;spacingLeft=3;spacingRight=3;rotatable=0;labelPosition=right;points=[];portConstraint=eastwest;strokeColor=inherit;" parent="2" vertex="1">
                    <mxGeometry y="52" width="160" height="8" as="geometry"/>
                </mxCell>
                <mxCell id="5" value="+ method(type): type" style="text;strokeColor=none;fillColor=none;align=left;verticalAlign=top;spacingLeft=4;spacingRight=4;overflow=hidden;rotatable=0;points=[[0,0.5],[1,0.5]];portConstraint=eastwest;" parent="2" vertex="1">
                    <mxGeometry y="60" width="160" height="26" as="geometry"/>
                </mxCell>
                <mxCell id="6" value="Use" style="endArrow=open;endSize=12;dashed=1;html=1;edgeStyle=orthogonalEdgeStyle;" parent="1" source="2" target="7" edge="1">
                    <mxGeometry width="160" relative="1" as="geometry">
                        <mxPoint x="400" y="540" as="sourcePoint"/>
                        <mxPoint x="560" y="540" as="targetPoint"/>
                    </mxGeometry>
                </mxCell>
                <mxCell id="7" value="MSnake" style="swimlane;fontStyle=1;align=center;verticalAlign=top;childLayout=stackLayout;horizontal=1;startSize=26;horizontalStack=0;resizeParent=1;resizeParentMax=0;resizeLast=0;collapsible=1;marginBottom=0;" parent="1" vertex="1" collapsed="1">
                    <mxGeometry x="320" y="270" width="90" height="30" as="geometry">
                        <mxRectangle x="410" y="255" width="160" height="86" as="alternateBounds"/>
                    </mxGeometry>
                </mxCell>
                <mxCell id="8" value="+ field: type" style="text;strokeColor=none;fillColor=none;align=left;verticalAlign=top;spacingLeft=4;spacingRight=4;overflow=hidden;rotatable=0;points=[[0,0.5],[1,0.5]];portConstraint=eastwest;" parent="7" vertex="1">
                    <mxGeometry y="26" width="160" height="26" as="geometry"/>
                </mxCell>
                <mxCell id="9" value="" style="line;strokeWidth=1;fillColor=none;align=left;verticalAlign=middle;spacingTop=-1;spacingLeft=3;spacingRight=3;rotatable=0;labelPosition=right;points=[];portConstraint=eastwest;strokeColor=inherit;" parent="7" vertex="1">
                    <mxGeometry y="52" width="160" height="8" as="geometry"/>
                </mxCell>
                <mxCell id="10" value="+ method(type): type" style="text;strokeColor=none;fillColor=none;align=left;verticalAlign=top;spacingLeft=4;spacingRight=4;overflow=hidden;rotatable=0;points=[[0,0.5],[1,0.5]];portConstraint=eastwest;" parent="7" vertex="1">
                    <mxGeometry y="60" width="160" height="26" as="geometry"/>
                </mxCell>
                <mxCell id="11" value="EV3Brick" style="swimlane;fontStyle=1;align=center;verticalAlign=top;childLayout=stackLayout;horizontal=1;startSize=26;horizontalStack=0;resizeParent=1;resizeParentMax=0;resizeLast=0;collapsible=1;marginBottom=0;" vertex="1" collapsed="1" parent="1">
                    <mxGeometry x="180" y="200" width="90" height="30" as="geometry">
                        <mxRectangle x="180" y="160" width="160" height="86" as="alternateBounds"/>
                    </mxGeometry>
                </mxCell>
                <mxCell id="12" value="+ field: type" style="text;strokeColor=none;fillColor=none;align=left;verticalAlign=top;spacingLeft=4;spacingRight=4;overflow=hidden;rotatable=0;points=[[0,0.5],[1,0.5]];portConstraint=eastwest;" vertex="1" parent="11">
                    <mxGeometry y="26" width="160" height="26" as="geometry"/>
                </mxCell>
                <mxCell id="13" value="" style="line;strokeWidth=1;fillColor=none;align=left;verticalAlign=middle;spacingTop=-1;spacingLeft=3;spacingRight=3;rotatable=0;labelPosition=right;points=[];portConstraint=eastwest;strokeColor=inherit;" vertex="1" parent="11">
                    <mxGeometry y="52" width="160" height="8" as="geometry"/>
                </mxCell>
                <mxCell id="14" value="+ method(type): type" style="text;strokeColor=none;fillColor=none;align=left;verticalAlign=top;spacingLeft=4;spacingRight=4;overflow=hidden;rotatable=0;points=[[0,0.5],[1,0.5]];portConstraint=eastwest;" vertex="1" parent="11">
                    <mxGeometry y="60" width="160" height="26" as="geometry"/>
                </mxCell>
                <mxCell id="15" value="Use" style="endArrow=open;endSize=12;dashed=1;html=1;edgeStyle=orthogonalEdgeStyle;" edge="1" parent="1" source="2" target="11">
                    <mxGeometry width="160" relative="1" as="geometry">
                        <mxPoint x="330" y="350" as="sourcePoint"/>
                        <mxPoint x="490" y="350" as="targetPoint"/>
                    </mxGeometry>
                </mxCell>
                <mxCell id="16" value="Use" style="endArrow=open;endSize=12;dashed=1;html=1;edgeStyle=orthogonalEdgeStyle;" edge="1" parent="1" source="7" target="11">
                    <mxGeometry width="160" relative="1" as="geometry">
                        <mxPoint x="235" y="400" as="sourcePoint"/>
                        <mxPoint x="235" y="240" as="targetPoint"/>
                        <Array as="points">
                            <mxPoint x="300" y="285"/>
                            <mxPoint x="300" y="215"/>
                        </Array>
                    </mxGeometry>
                </mxCell>
            </root>
        </mxGraphModel>
    </diagram>
</mxfile>